<svg width="860" height="436" viewBox="0 0 860 436" fill="none" xmlns="http://www.w3.org/2000/svg" role="img" aria-labelledby="title desc">
  <title id="title">Repository Language Stats</title>
  <desc id="desc">Language percentages generated from GitHub repositories visible to the configured token.</desc>
  <rect width="860" height="436" rx="22" fill="#0d1117"/>
  <rect x="1" y="1" width="858" height="434" rx="21" stroke="#30363d"/>
  <circle cx="780" cy="54" r="78" fill="#161b22" opacity="0.65"/>
  <text x="36" y="54" fill="#f0f6fc" font-family="Inter,Segoe UI,Arial,sans-serif" font-size="28" font-weight="700">Repository Language Stats</text>
  <text x="36" y="82" fill="#8b949e" font-family="Inter,Segoe UI,Arial,sans-serif" font-size="14">Generated from owned repositories · 2026-07-24 06:05 UTC</text>
  <text x="36" y="106" fill="#8b949e" font-family="Inter,Segoe UI,Arial,sans-serif" font-size="13">Repos counted: 21 · private: 21 · mode: dominant language per repository · Raw code size checked: 45.8 MB</text>
  <text x="36" y="133" fill="#f0f6fc" font-family="Inter,Segoe UI,Arial,sans-serif" font-size="15" font-weight="600">Rust</text>
  <rect x="302" y="118" width="420" height="14" rx="7" fill="#21262d"/>
  <rect x="302" y="118" width="200" height="14" rx="7" fill="#dea584"/>
  <text x="746" y="132" fill="#f0f6fc" font-family="Inter,Segoe UI,Arial,sans-serif" font-size="14" font-weight="600" text-anchor="end">47.6%</text>
  <text x="824" y="132" fill="#8b949e" font-family="Inter,Segoe UI,Arial,sans-serif" font-size="12" text-anchor="end">10 repos</text>
  <text x="36" y="171" fill="#f0f6fc" font-family="Inter,Segoe UI,Arial,sans-serif" font-size="15" font-weight="600">TypeScript</text>
  <rect x="302" y="156" width="420" height="14" rx="7" fill="#21262d"/>
  <rect x="302" y="156" width="80" height="14" rx="7" fill="#3178c6"/>
  <text x="746" y="170" fill="#f0f6fc" font-family="Inter,Segoe UI,Arial,sans-serif" font-size="14" font-weight="600" text-anchor="end">19.0%</text>
  <text x="824" y="170" fill="#8b949e" font-family="Inter,Segoe UI,Arial,sans-serif" font-size="12" text-anchor="end">4 repos</text>
  <text x="36" y="209" fill="#f0f6fc" font-family="Inter,Segoe UI,Arial,sans-serif" font-size="15" font-weight="600">HTML</text>
  <rect x="302" y="194" width="420" height="14" rx="7" fill="#21262d"/>
  <rect x="302" y="194" width="40" height="14" rx="7" fill="#e34c26"/>
  <text x="746" y="208" fill="#f0f6fc" font-family="Inter,Segoe UI,Arial,sans-serif" font-size="14" font-weight="600" text-anchor="end">9.5%</text>
  <text x="824" y="208" fill="#8b949e" font-family="Inter,Segoe UI,Arial,sans-serif" font-size="12" text-anchor="end">2 repos</text>
  <text x="36" y="247" fill="#f0f6fc" font-family="Inter,Segoe UI,Arial,sans-serif" font-size="15" font-weight="600">JavaScript</text>
  <rect x="302" y="232" width="420" height="14" rx="7" fill="#21262d"/>
  <rect x="302" y="232" width="40" height="14" rx="7" fill="#f1e05a"/>
  <text x="746" y="246" fill="#f0f6fc" font-family="Inter,Segoe UI,Arial,sans-serif" font-size="14" font-weight="600" text-anchor="end">9.5%</text>
  <text x="824" y="246" fill="#8b949e" font-family="Inter,Segoe UI,Arial,sans-serif" font-size="12" text-anchor="end">2 repos</text>
  <text x="36" y="285" fill="#f0f6fc" font-family="Inter,Segoe UI,Arial,sans-serif" font-size="15" font-weight="600">C++</text>
  <rect x="302" y="270" width="420" height="14" rx="7" fill="#21262d"/>
  <rect x="302" y="270" width="20" height="14" rx="7" fill="#f34b7d"/>
  <text x="746" y="284" fill="#f0f6fc" font-family="Inter,Segoe UI,Arial,sans-serif" font-size="14" font-weight="600" text-anchor="end">4.8%</text>
  <text x="824" y="284" fill="#8b949e" font-family="Inter,Segoe UI,Arial,sans-serif" font-size="12" text-anchor="end">1 repo</text>
  <text x="36" y="323" fill="#f0f6fc" font-family="Inter,Segoe UI,Arial,sans-serif" font-size="15" font-weight="600">Assembly</text>
  <rect x="302" y="308" width="420" height="14" rx="7" fill="#21262d"/>
  <rect x="302" y="308" width="20" height="14" rx="7" fill="#6E4C13"/>
  <text x="746" y="322" fill="#f0f6fc" font-family="Inter,Segoe UI,Arial,sans-serif" font-size="14" font-weight="600" text-anchor="end">4.8%</text>
  <text x="824" y="322" fill="#8b949e" font-family="Inter,Segoe UI,Arial,sans-serif" font-size="12" text-anchor="end">1 repo</text>
  <text x="36" y="361" fill="#f0f6fc" font-family="Inter,Segoe UI,Arial,sans-serif" font-size="15" font-weight="600">Python</text>
  <rect x="302" y="346" width="420" height="14" rx="7" fill="#21262d"/>
  <rect x="302" y="346" width="20" height="14" rx="7" fill="#3572A5"/>
  <text x="746" y="360" fill="#f0f6fc" font-family="Inter,Segoe UI,Arial,sans-serif" font-size="14" font-weight="600" text-anchor="end">4.8%</text>
  <text x="824" y="360" fill="#8b949e" font-family="Inter,Segoe UI,Arial,sans-serif" font-size="12" text-anchor="end">1 repo</text>
  <line x1="36" y1="392" x2="824" y2="392" stroke="#30363d"/>
  <text x="36" y="418" fill="#8b949e" font-family="Inter,Segoe UI,Arial,sans-serif" font-size="12">Private repository names are not written into this SVG. Current profile repo is excluded.</text>
</svg>
