<svg width="860" height="466" viewBox="0 0 860 466" fill="none" xmlns="http://www.w3.org/2000/svg" role="img" aria-labelledby="title desc">
  <title id="title">Language Stats</title>
  <desc id="desc">Language percentages generated from GitHub repositories visible to the configured token.</desc>
  <rect width="860" height="466" rx="22" fill="#0d1117"/>
  <rect x="1" y="1" width="858" height="464" rx="21" stroke="#30363d"/>
  <circle cx="780" cy="54" r="78" fill="#161b22" opacity="0.65"/>
  <text x="36" y="54" fill="#f0f6fc" font-family="Inter,Segoe UI,Arial,sans-serif" font-size="28" font-weight="700">Language Stats</text>
  <text x="36" y="82" fill="#8b949e" font-family="Inter,Segoe UI,Arial,sans-serif" font-size="14">Generated from all repositories visible to the token · 2026-07-02 06:52 UTC</text>
  <text x="36" y="106" fill="#8b949e" font-family="Inter,Segoe UI,Arial,sans-serif" font-size="13">Repos scanned: 25 · with code: 25 · total: 48.6 MB</text>
  <text x="36" y="129" fill="#f0f6fc" font-family="Inter,Segoe UI,Arial,sans-serif" font-size="15" font-weight="600">Python</text>
  <rect x="300" y="114" width="420" height="14" rx="7" fill="#21262d"/>
  <rect x="300" y="114" width="339" height="14" rx="7" fill="#3572A5"/>
  <text x="744" y="128" fill="#f0f6fc" font-family="Inter,Segoe UI,Arial,sans-serif" font-size="14" font-weight="600" text-anchor="end">80.7%</text>
  <text x="808" y="128" fill="#8b949e" font-family="Inter,Segoe UI,Arial,sans-serif" font-size="12" text-anchor="end">39.3 MB</text>
  <text x="36" y="167" fill="#f0f6fc" font-family="Inter,Segoe UI,Arial,sans-serif" font-size="15" font-weight="600">JavaScript</text>
  <rect x="300" y="152" width="420" height="14" rx="7" fill="#21262d"/>
  <rect x="300" y="152" width="21" height="14" rx="7" fill="#f1e05a"/>
  <text x="744" y="166" fill="#f0f6fc" font-family="Inter,Segoe UI,Arial,sans-serif" font-size="14" font-weight="600" text-anchor="end">5.0%</text>
  <text x="808" y="166" fill="#8b949e" font-family="Inter,Segoe UI,Arial,sans-serif" font-size="12" text-anchor="end">2.5 MB</text>
  <text x="36" y="205" fill="#f0f6fc" font-family="Inter,Segoe UI,Arial,sans-serif" font-size="15" font-weight="600">Rust</text>
  <rect x="300" y="190" width="420" height="14" rx="7" fill="#21262d"/>
  <rect x="300" y="190" width="21" height="14" rx="7" fill="#dea584"/>
  <text x="744" y="204" fill="#f0f6fc" font-family="Inter,Segoe UI,Arial,sans-serif" font-size="14" font-weight="600" text-anchor="end">5.0%</text>
  <text x="808" y="204" fill="#8b949e" font-family="Inter,Segoe UI,Arial,sans-serif" font-size="12" text-anchor="end">2.4 MB</text>
  <text x="36" y="243" fill="#f0f6fc" font-family="Inter,Segoe UI,Arial,sans-serif" font-size="15" font-weight="600">HTML</text>
  <rect x="300" y="228" width="420" height="14" rx="7" fill="#21262d"/>
  <rect x="300" y="228" width="15" height="14" rx="7" fill="#e34c26"/>
  <text x="744" y="242" fill="#f0f6fc" font-family="Inter,Segoe UI,Arial,sans-serif" font-size="14" font-weight="600" text-anchor="end">3.5%</text>
  <text x="808" y="242" fill="#8b949e" font-family="Inter,Segoe UI,Arial,sans-serif" font-size="12" text-anchor="end">1.7 MB</text>
  <text x="36" y="281" fill="#f0f6fc" font-family="Inter,Segoe UI,Arial,sans-serif" font-size="15" font-weight="600">CSS</text>
  <rect x="300" y="266" width="420" height="14" rx="7" fill="#21262d"/>
  <rect x="300" y="266" width="11" height="14" rx="7" fill="#563d7c"/>
  <text x="744" y="280" fill="#f0f6fc" font-family="Inter,Segoe UI,Arial,sans-serif" font-size="14" font-weight="600" text-anchor="end">2.6%</text>
  <text x="808" y="280" fill="#8b949e" font-family="Inter,Segoe UI,Arial,sans-serif" font-size="12" text-anchor="end">1.3 MB</text>
  <text x="36" y="319" fill="#f0f6fc" font-family="Inter,Segoe UI,Arial,sans-serif" font-size="15" font-weight="600">TypeScript</text>
  <rect x="300" y="304" width="420" height="14" rx="7" fill="#21262d"/>
  <rect x="300" y="304" width="7" height="14" rx="7" fill="#3178c6"/>
  <text x="744" y="318" fill="#f0f6fc" font-family="Inter,Segoe UI,Arial,sans-serif" font-size="14" font-weight="600" text-anchor="end">1.8%</text>
  <text x="808" y="318" fill="#8b949e" font-family="Inter,Segoe UI,Arial,sans-serif" font-size="12" text-anchor="end">872.5 KB</text>
  <text x="36" y="357" fill="#f0f6fc" font-family="Inter,Segoe UI,Arial,sans-serif" font-size="15" font-weight="600">SCSS</text>
  <rect x="300" y="342" width="420" height="14" rx="7" fill="#21262d"/>
  <rect x="300" y="342" width="4" height="14" rx="7" fill="#c6538c"/>
  <text x="744" y="356" fill="#f0f6fc" font-family="Inter,Segoe UI,Arial,sans-serif" font-size="14" font-weight="600" text-anchor="end">0.5%</text>
  <text x="808" y="356" fill="#8b949e" font-family="Inter,Segoe UI,Arial,sans-serif" font-size="12" text-anchor="end">241.8 KB</text>
  <text x="36" y="395" fill="#f0f6fc" font-family="Inter,Segoe UI,Arial,sans-serif" font-size="15" font-weight="600">Other</text>
  <rect x="300" y="380" width="420" height="14" rx="7" fill="#21262d"/>
  <rect x="300" y="380" width="4" height="14" rx="7" fill="#8b949e"/>
  <text x="744" y="394" fill="#f0f6fc" font-family="Inter,Segoe UI,Arial,sans-serif" font-size="14" font-weight="600" text-anchor="end">0.9%</text>
  <text x="808" y="394" fill="#8b949e" font-family="Inter,Segoe UI,Arial,sans-serif" font-size="12" text-anchor="end">449.3 KB</text>
  <line x1="36" y1="424" x2="824" y2="424" stroke="#30363d"/>
  <text x="36" y="448" fill="#8b949e" font-family="Inter,Segoe UI,Arial,sans-serif" font-size="12">Private repository names are not written into this SVG.</text>
</svg>
